<?xml version="1.0" ?>
<svg viewBox="0 0 512 512" xmlns="http://www.w3.org/2000/svg">
    <path class="cls-1" d="M409.79,171.54h-46V151a51.68,51.68,0,0,0-51.62-51.62H199A51.67,51.67,0,0,0,147.39,151v20.53h-46a42.39,42.39,0,0,0-42.34,42.33v84.4a11.34,11.34,0,0,0,11.34,11.34h4.46v61.68a45.32,45.32,0,0,0,45.27,45.27H391.07a45.32,45.32,0,0,0,45.27-45.27V309.61h4.45a11.34,11.34,0,0,0,11.34-11.34v-84.4A42.38,42.38,0,0,0,409.79,171.54ZM170.06,151A29,29,0,0,1,199,122.06h113.2A29,29,0,0,1,341.15,151v20.53H170.06Zm-88.3,62.86a19.68,19.68,0,0,1,19.66-19.66H409.79a19.68,19.68,0,0,1,19.66,19.66v73.06H363.83V269a11.34,11.34,0,1,0-22.68,0v17.89H170.06V269a11.34,11.34,0,1,0-22.67,0v17.89H81.76Zm331.9,157.42a22.61,22.61,0,0,1-22.59,22.59H120.15a22.62,22.62,0,0,1-22.6-22.59V309.61h49.84v17.65a11.34,11.34,0,1,0,22.67,0V309.61H341.15v17.65a11.34,11.34,0,1,0,22.68,0V309.61h49.83Z"/>
</svg>
